<svg xmlns="http://www.w3.org/2000/svg" version="1.1" xmlns:xlink="http://www.w3.org/1999/xlink" xmlns:svgjs="http://svgjs.dev/svgjs" width="1440" height="560" preserveAspectRatio="none" viewBox="0 0 1440 560"><g mask="url(&quot;#SvgjsMask1000&quot;)" fill="none"><rect width="1440" height="560" x="0" y="0" fill="#0e2a47"></rect><path d="M 0,138 C 57.6,166.2 172.8,286 288,279 C 403.2,272 460.8,130.2 576,103 C 691.2,75.8 748.8,150.4 864,143 C 979.2,135.6 1036.8,64.4 1152,66 C 1267.2,67.6 1382.4,134 1440,151L1440 560L0 560z" fill="#184a7e"></path><path d="M 0,398 C 96,408.6 288,474.4 480,451 C 672,427.6 768,259.8 960,281 C 1152,302.2 1344,501.8 1440,557L1440 560L0 560z" fill="#2264ab"></path></g><defs><mask id="SvgjsMask1000"><rect width="1440" height="560" fill="#ffffff"></rect></mask></defs></svg>