<svg xmlns="http://www.w3.org/2000/svg" version="1.1" xmlns:xlink="http://www.w3.org/1999/xlink" xmlns:svgjs="http://svgjs.dev/svgjs" width="1440" height="560" preserveAspectRatio="none" viewBox="0 0 1440 560"><g mask="url(&quot;#SvgjsMask1000&quot;)" fill="none"><rect width="1440" height="560" x="0" y="0" fill="#0e2a47"></rect><path d="M0,477.469C107.782,478.515,227.34,553.049,316.459,492.42C405.898,431.573,396.549,297.395,419.936,191.778C438.746,106.835,439.436,23.812,439.492,-63.189C439.558,-165.804,478.88,-279.941,420.295,-364.188C361.337,-448.971,244.311,-466.3,143.524,-488.799C48.077,-510.106,-47.533,-506.696,-143.917,-490.136C-251.233,-471.697,-371.095,-465.398,-447.01,-387.336C-523.874,-308.298,-558.088,-187.683,-544.448,-78.28C-531.769,23.418,-416.18,77.481,-377.241,172.28C-335.793,273.186,-397.347,417.707,-312.538,486.318C-229.838,553.223,-106.37,476.437,0,477.469" fill="#0b2239"></path><path d="M1440 992.8299999999999C1522.745 996.486 1603.851 968.152 1673.156 922.798 1742.098 877.682 1802.292 815.654 1829.554 737.903 1855.749 663.197 1830.578 583.822 1819.498 505.436 1808.3899999999999 426.848 1797.798 350.80600000000004 1764.645 278.693 1721.243 184.28500000000003 1695.029 59.31400000000002 1597.689 22.961000000000013 1501.243-13.057999999999993 1397.008 57.45600000000002 1307.242 107.86900000000003 1231.456 150.43 1191.649 230.96300000000002 1125.961 287.884 1045.545 357.56600000000003 913.415 378.73 878.615 479.28499999999997 843.935 579.495 888.642 698.836 955.1610000000001 781.419 1017.28 858.539 1128.9479999999999 863.182 1219.72 902.7629999999999 1293.938 935.125 1359.112 989.256 1440 992.8299999999999" fill="#113255"></path></g><defs><mask id="SvgjsMask1000"><rect width="1440" height="560" fill="#ffffff"></rect></mask></defs></svg>